<svg width="34" height="40" viewBox="0 0 34 40" fill="none" xmlns="http://www.w3.org/2000/svg">
<path id="Vector" d="M21.4513 8.54275C21.4513 8.54275 21.7765 8.8617 22.4269 9.4996C23.0773 10.1375 23.4025 11.3695 23.4025 13.1957C23.4025 15.0218 22.7521 16.5728 21.4513 17.8486C20.1505 19.1244 18.5995 19.7623 16.7984 19.7623C14.9973 19.7623 13.4463 19.1244 12.1455 17.8486C10.8447 16.5728 10.1943 15.0218 10.1943 13.1957C10.1943 11.3695 10.8447 9.81855 12.1455 8.54275C13.4463 7.26695 14.9973 6.62906 16.7984 6.62906C18.5995 6.62906 20.1505 7.26695 21.4513 8.54275ZM12.8584 9.29322C12.8584 9.29322 12.5895 9.56214 12.0517 10.1C11.5139 10.6378 11.2449 11.6697 11.2449 13.1957C11.2449 14.7216 11.7828 16.0224 12.8584 17.0981C13.9341 18.1738 15.2474 18.7116 16.7984 18.7116C18.3494 18.7116 19.6627 18.1738 20.7384 17.0981C21.814 16.0224 22.3519 14.7216 22.3519 13.1957C22.3519 11.6697 21.814 10.3689 20.7384 9.29322C19.6627 8.21755 18.3494 7.67971 16.7984 7.67971C15.2474 7.67971 13.9341 8.21755 12.8584 9.29322ZM33.2337 38.3739C33.2837 38.4239 33.3087 38.474 33.3087 38.524C33.3087 38.8742 33.1336 39.0493 32.7834 39.0493H0.813414C0.463195 39.0493 0.288086 38.8742 0.288086 38.524C0.288086 38.474 0.313102 38.4239 0.363133 38.3739L3.36501 27.417C3.41504 27.1669 3.56513 27.0418 3.81529 27.0418H9.89409C6.09171 22.539 4.19053 17.9361 4.19053 13.2332C4.19053 9.73099 5.4288 6.75413 7.90535 4.3026C10.3819 1.85107 13.3462 0.625301 16.7984 0.625301C20.2506 0.625301 23.2149 1.85107 25.6915 4.3026C28.168 6.75413 29.4063 9.73099 29.4063 13.2332C29.4063 17.9361 27.5051 22.539 23.7027 27.0418H29.7815C30.0317 27.0418 30.1818 27.1669 30.2318 27.417L33.2337 38.3739ZM24.9785 5.05307C24.9785 5.05307 24.4157 4.49022 23.29 3.36451C22.1643 2.23881 20.0004 1.67596 16.7984 1.67596C13.5964 1.67596 10.8697 2.80166 8.61829 5.05307C6.36689 7.30448 5.24118 10.0312 5.24118 13.2332C5.24118 15.1344 5.5914 17.0356 6.29184 18.9367C6.99228 20.8379 7.80528 22.464 8.73086 23.8148C9.65644 25.1656 10.7321 26.4915 11.9579 27.7923C13.1836 29.0931 14.1467 30.0312 14.8472 30.6065C15.5476 31.1819 16.198 31.6697 16.7984 32.07C17.3988 31.6697 18.0492 31.1819 18.7496 30.6065C19.4501 30.0312 20.4132 29.0931 21.6389 27.7923C22.8647 26.4915 23.9404 25.1656 24.8659 23.8148C25.7915 22.464 26.6045 20.8379 27.305 18.9367C28.0054 17.0356 28.3556 15.1344 28.3556 13.2332C28.3556 10.0312 27.2299 7.30448 24.9785 5.05307ZM1.48884 37.9987H32.108L29.3312 28.0925H22.8022C21.1011 29.9937 19.1999 31.6947 17.0986 33.1957C16.9985 33.2457 16.8985 33.2707 16.7984 33.2707C16.6983 33.2707 16.5983 33.2457 16.4982 33.1957C14.3969 31.6947 12.4957 29.9937 10.7947 28.0925H4.26557L1.48884 37.9987Z" fill="#A08131"/>
</svg>
