<svg width="39" height="36" viewBox="0 0 39 36" fill="none" xmlns="http://www.w3.org/2000/svg">
<path id="Vector" d="M38.7121 6.43029C38.7121 8.08132 38.1367 9.51972 36.986 10.7455C35.8353 11.9713 34.4344 12.6342 32.7834 12.7342V28.419C32.7834 28.9694 32.5708 29.4447 32.1455 29.8449C31.7202 30.2452 31.2324 30.4453 30.6821 30.4453H26.7796L24.228 34.9481C23.9279 35.3984 23.5276 35.6235 23.0273 35.6235C22.527 35.6235 22.1518 35.3984 21.9016 34.9481L19.35 30.4453H2.3894C1.78902 30.4453 1.28871 30.2452 0.888461 29.8449C0.488211 29.4447 0.288086 28.9694 0.288086 28.419V8.60665C0.288086 8.0563 0.488211 7.5685 0.888461 7.14323C1.28871 6.71797 1.78902 6.50534 2.3894 6.50534H8.01792C8.36814 6.50534 8.54325 6.69295 8.54325 7.06819C8.54325 7.44342 8.36814 7.63104 8.01792 7.63104H2.3894C2.13924 7.63104 1.9141 7.70609 1.71398 7.85618L15.8228 22.9406C16.0229 23.1407 16.2606 23.2408 16.5357 23.2408C16.8109 23.2408 17.0486 23.1407 17.2487 22.9406L28.2055 11.2333C27.1048 10.2827 26.4294 9.08195 26.1793 7.63104H10.7947C10.4444 7.63104 10.2693 7.44342 10.2693 7.06819C10.2693 6.69295 10.4444 6.50534 10.7947 6.50534H26.0292V6.43029C26.0292 5.52973 26.1918 4.6917 26.517 3.91622C26.8422 3.14073 27.2925 2.46531 27.8678 1.88995C28.4432 1.31459 29.1186 0.864311 29.8941 0.539108C30.6696 0.213905 31.4826 0.0513039 32.3331 0.0513039C33.1336 0.0513039 33.9091 0.188889 34.6596 0.464062C35.41 0.739231 36.073 1.15199 36.6483 1.70234C37.2237 2.25268 37.6865 2.87807 38.0367 3.57851C38.2368 3.92873 38.1618 4.17888 37.8115 4.32898C37.4613 4.47907 37.2112 4.40402 37.0611 4.10384C36.6108 3.20327 35.9604 2.49033 35.1098 1.965C34.2593 1.43967 33.3337 1.17701 32.3331 1.17701C30.9322 1.17701 29.719 1.68983 28.6933 2.71547C27.6677 3.74111 27.1549 4.96688 27.1549 6.39277C27.1549 7.81866 27.6677 9.04442 28.6933 10.0701C29.719 11.0957 30.9447 11.6085 32.3706 11.6085C33.7965 11.6085 35.0223 11.0957 36.0479 10.0701C37.0736 9.04442 37.5864 7.83117 37.5864 6.43029C37.5864 6.03004 37.774 5.82991 38.1493 5.82991C38.5245 5.82991 38.7121 6.03004 38.7121 6.43029ZM10.0442 18.3627L1.41379 9.20703V27.5935L10.0442 18.3627ZM30.6821 29.3196C31.0323 29.3196 31.2825 29.2195 31.4326 29.0194L28.8059 26.2427C28.5558 25.9425 28.5683 25.6673 28.8434 25.4172C29.1186 25.167 29.3813 25.167 29.6314 25.4172L31.6577 27.5935V12.7342C30.7571 12.6342 29.9316 12.334 29.1811 11.8337L23.0273 18.3627L27.8303 23.4659C28.0805 23.7661 28.0679 24.0413 27.7928 24.2915C27.5176 24.5416 27.2549 24.5416 27.0048 24.2915L22.2768 19.1883L18.0742 23.7661C17.6239 24.1664 17.1111 24.3665 16.5357 24.3665C15.9604 24.3665 15.4476 24.1664 14.9973 23.7661L10.7947 19.1883L1.63893 29.0194C1.83906 29.2195 2.08921 29.3196 2.3894 29.3196H19.425C19.7753 29.3196 20.0504 29.4697 20.2506 29.7699L22.8772 34.4228C22.9272 34.4728 22.9898 34.4978 23.0648 34.4978C23.1399 34.4978 23.1774 34.4728 23.1774 34.4228L25.8791 29.7699C26.0292 29.4697 26.3043 29.3196 26.7046 29.3196H30.6821ZM33.0085 9.28207C33.0085 9.63229 32.8209 9.8074 32.4457 9.8074C32.0704 9.8074 31.8828 9.63229 31.8828 9.28207V4.70421H31.3575C31.0073 4.70421 30.8322 4.51659 30.8322 4.14136C30.8322 3.76612 31.0073 3.57851 31.3575 3.57851H32.4832C32.8334 3.57851 33.0085 3.77863 33.0085 4.17888V9.28207Z" fill="#A08131"/>
</svg>
