<svg width="40" height="40" viewBox="0 0 40 40" fill="none" xmlns="http://www.w3.org/2000/svg">
<path id="Vector" d="M38.3611 30.2688C38.8614 30.619 39.1741 31.0818 39.2992 31.6572C39.4242 32.2326 39.3367 32.7954 39.0365 33.3458L37.0853 36.5728C36.4349 37.6234 35.5093 38.3239 34.3085 38.6741C33.3579 38.9242 32.3573 39.0493 31.3067 39.0493C25.6531 39.0493 19.1741 35.397 11.8695 28.0925C3.11404 19.337 -0.413168 11.8573 1.28789 5.65344C1.63811 4.45269 2.33855 3.52711 3.38921 2.87671L6.61622 0.925488C7.16657 0.625301 7.72942 0.537746 8.30478 0.662827C8.88014 0.787903 9.34293 1.1006 9.69315 1.60091L14.8714 9.40579C15.2216 9.9061 15.3467 10.4439 15.2466 11.0193C15.1466 11.5947 14.8714 12.0825 14.4211 12.4827L11.4943 14.7341C11.044 15.0843 10.9439 15.4846 11.1941 15.9349L11.4192 16.3852C12.62 18.5365 14.4086 20.8004 16.7851 23.1769C19.1616 25.5534 21.4255 27.342 23.5768 28.5427L24.0271 28.7679C24.4774 29.018 24.8776 28.918 25.2279 28.4677L27.4793 25.5409C27.8795 25.0906 28.3673 24.8154 28.9427 24.7154C29.518 24.6153 30.0559 24.7404 30.5562 25.0906L38.3611 30.2688ZM37.9108 32.6703C38.211 32.12 38.1109 31.6697 37.6106 31.3195L29.8057 26.1412C29.3054 25.791 28.8801 25.8661 28.5299 26.3664L26.2785 29.2932C25.9283 29.7435 25.478 30.0187 24.9277 30.1187C24.3773 30.2188 23.852 30.1438 23.3517 29.8936L22.9764 29.6685C20.725 28.4177 18.3611 26.554 15.8845 24.0775C13.408 21.6009 11.5443 19.2369 10.2935 16.9855L10.0684 16.6103C9.81823 16.11 9.74318 15.5847 9.84324 15.0343C9.9433 14.484 10.2185 14.0337 10.6688 13.6835L13.5956 11.4321C14.0959 11.0818 14.1709 10.6566 13.8207 10.1563L11.4192 6.55401L8.64249 2.35138C8.29227 1.85107 7.84199 1.751 7.29165 2.05119L4.06463 4.00241C3.31416 4.45269 2.81385 5.1031 2.56369 5.95363C0.962691 11.7072 4.36482 18.7867 12.7701 27.1919C21.1753 35.5972 28.2547 38.9993 34.0083 37.3983C34.8589 37.1481 35.5093 36.6478 35.9596 35.8973L37.9108 32.6703ZM22.6763 7.00429C22.276 7.00429 22.0759 6.79166 22.0759 6.36639C22.0759 5.94112 22.276 5.72849 22.6763 5.72849C26.0284 5.72849 28.8926 6.91673 31.2691 9.29322C33.6456 11.6697 34.8339 14.534 34.8339 17.8861C34.8339 18.3364 34.6212 18.5615 34.196 18.5615C33.7707 18.5615 33.5581 18.3364 33.5581 17.8861C33.5581 14.8842 32.4949 12.3201 30.3686 10.1938C28.2422 8.06745 25.6781 7.00429 22.6763 7.00429ZM22.6763 10.9067C22.276 10.9067 22.0759 10.6941 22.0759 10.2688C22.0759 9.84356 22.276 9.63093 22.6763 9.63093C24.9777 9.63093 26.9414 10.4439 28.5674 12.07C30.1935 13.696 31.0065 15.6347 31.0065 17.8861C31.0065 18.3364 30.7938 18.5615 30.3686 18.5615C29.9433 18.5615 29.7307 18.3364 29.7307 17.8861C29.7307 15.9849 29.0427 14.3464 27.6669 12.9705C26.291 11.5947 24.6275 10.9067 22.6763 10.9067ZM22.6763 14.7341C22.276 14.7341 22.0759 14.5215 22.0759 14.0962C22.0759 13.671 22.276 13.4583 22.6763 13.4583C23.927 13.4583 24.9902 13.8961 25.8658 14.7716C26.7413 15.6472 27.1791 16.6853 27.1791 17.8861C27.1791 18.3364 26.9664 18.5615 26.5412 18.5615C26.1159 18.5615 25.9033 18.3364 25.9033 17.8861C25.9033 17.0356 25.5906 16.2976 24.9652 15.6722C24.3398 15.0468 23.5768 14.7341 22.6763 14.7341Z" fill="#A08131"/>
</svg>
